General                          : ChattChitto RG - Movies [R2L]
==========
Complete name                    : The Thomas Crown Affair 1999 720p BRRip H264 [ChattChitto RG]
Format                           : MPEG-4
Format profile                   : Base Media
Codec ID                         : isom
File size                        : 2.10 GiB
Duration                         : 1h 53mn
Overall bit rate                 : 2 660 Kbps
Encoded date                     : UTC 2011-02-08 20:04:10

Video
==========
ID                               : 1
Format                           : AVC
Format/Info                      : Advanced Video Codec
Format profile                   : High@L4.0
Format settings, CABAC           : Yes
Format settings, ReFrames        : 4 frames
Codec ID                         : avc1
Codec ID/Info                    : Advanced Video Coding
Duration                         : 1h 53mn
Bit rate mode                    : Variable
Bit rate                         : 2 300 Kbps
Maximum bit rate                 : 17.5 Mbps
Width                            : 1 280 pixels
Height                           : 528 pixels
Display aspect ratio             : 2.40:1
Frame rate mode                  : Constant
Frame rate                       : 23.976 fps
Resolution                       : 24 bits
Colorimetry                      : 4:2:0
Scan type                        : Progressive
Bits/(Pixel*Frame)               : 0.142
Stream size                      : 1.82 GiB (86%)
Writing library                  : x264 core 84 r1400M 20fa784
Encoded date                     : UTC 2011-02-08 19:52:48

Audio
==========
ID                               : 2
Format                           : AAC
Format/Info                      : Advanced Audio Codec
Format version                   : Version 4
Format profile                   : LC
Format settings, SBR             : No
Codec ID                         : 40
Duration                         : 1h 53mn
Bit rate mode                    : Variable
Bit rate                         : 352.8 Kbps
Maximum bit rate                 : 459 Kbps
Channel(s)                       : 6 channels
Channel positions                : Front: L C R, Rear: L R, LFE
Sampling rate                    : 48.0 KHz
Resolution                       : 16 bits
Stream size                      : 289 MiB (13%)
Encoded date                     : UTC 2011-02-08 20:05:29

Subtitles                        : English | Romanian


----------------------------------------------------
IMDB Link: http://www.imdb.com/title/tt1334102/
----------------------------------------------------



Screen Shots:
==============    
http://bayimg.com/nAdgKaADm 
http://bayimg.com/naDglaaDm 
http://bayimg.com/NADgMaAdm 
http://bayimg.com/nADgNaadM 
http://bayimg.com/nADgoaAdm



ScreenShots Comparison:
=========================  
http://screenshotcomparison.com/comparison/26877



Plot:
======
A very rich and successful playboy amuses himself by stealing artwork, but may have met his match in a seductive detective.



Release Info:
==============
original name .... : The Thomas Crown Affair 1999 720p BRRip H264 [ChattChitto RG]
ripper.............: LCHD
encoder............: Recalled2Life (R2L)
video codec........: H264/.MP4
video bitrate......: 2300 Kbps
audio codec........: AAC-LC
aspect ratio.......: 2.40:1
resolution.........: 1280 x 528
genre..............: Comedy | Crime | Romance
runtime............: 1h 53mn
language...........: English
rating.............: R
subtitles..........: English | Romanian
sample.............: Yes [19.1 MB]
2ch Audio..........: 2ch Audio for XBox Viewers
Compatibility .....: XBox | PS3 | WD Live



Source:
========
The.Thomas.Crown.Affair.1999.1080p.BluRay.x264-LCHD  THANKS!



Notes:
=======
ChattChitto RG Encourages Burning this Film with ConvertXtoDVD and Playing with VLC media player.
XBox 360 | PS3 | WD Live - Compatible 
Enhanced for your viewing pleasure ;)